<svg width="800" height="318" viewBox="0 0 800 318" fill="none" xmlns="http://www.w3.org/2000/svg">
<path d="M170.989 180.6V89H204.189V180.6H170.989ZM187.589 231.6C182.122 231.6 177.456 229.6 173.589 225.6C169.722 221.6 167.789 216.867 167.789 211.4C167.789 205.933 169.722 201.267 173.589 197.4C177.456 193.4 182.122 191.4 187.589 191.4C193.189 191.4 197.922 193.4 201.789 197.4C205.789 201.267 207.789 205.933 207.789 211.4C207.789 216.867 205.789 221.6 201.789 225.6C197.922 229.6 193.189 231.6 187.589 231.6ZM226.211 229V169.8C226.211 161 228.344 153.133 232.611 146.2C237.011 139.133 243.144 133.6 251.011 129.6C259.011 125.6 268.344 123.6 279.011 123.6C289.678 123.6 298.878 125.6 306.611 129.6C314.344 133.6 320.278 139.133 324.411 146.2C328.544 153.133 330.611 161 330.611 169.8V229H295.811V171.4C295.811 166.867 294.211 162.867 291.011 159.4C287.811 155.933 283.611 154.2 278.411 154.2C273.211 154.2 268.944 155.933 265.611 159.4C262.411 162.867 260.811 166.867 260.811 171.4V229H226.211ZM366.23 269.6V240H416.43C418.696 240 420.496 239.333 421.83 238C423.163 236.8 423.83 235.2 423.83 233.2V212.8H423.03C419.696 216.8 415.63 220.067 410.83 222.6C406.163 225.133 400.23 226.4 393.03 226.4C383.963 226.4 375.963 224.267 369.03 220C362.096 215.6 356.63 209.667 352.63 202.2C348.763 194.733 346.83 186.333 346.83 177C346.83 167.4 348.963 158.533 353.23 150.4C357.496 142.267 363.763 135.8 372.03 131C380.296 126.067 390.363 123.6 402.23 123.6C413.563 123.6 423.43 125.933 431.83 130.6C440.363 135.267 446.963 141.8 451.63 150.2C456.296 158.467 458.63 168.2 458.63 179.4V238.6C458.63 248.2 455.83 255.733 450.23 261.2C444.63 266.8 436.763 269.6 426.63 269.6H366.23ZM402.83 198.2C408.83 198.2 413.696 196.133 417.43 192C421.296 187.867 423.23 182.867 423.23 177C423.23 170.733 421.296 165.467 417.43 161.2C413.696 156.8 408.83 154.6 402.83 154.6C396.696 154.6 391.696 156.733 387.83 161C384.096 165.133 382.23 170.333 382.23 176.6C382.23 182.6 384.096 187.733 387.83 192C391.696 196.133 396.696 198.2 402.83 198.2ZM477.369 229V157C477.369 147.4 480.102 139.867 485.569 134.4C491.169 128.8 498.902 126 508.769 126H540.369V153.2H519.369C517.235 153.2 515.502 153.867 514.169 155.2C512.835 156.533 512.169 158.267 512.169 160.4V229H477.369ZM658.698 231.6C669.898 231.6 679.698 229.333 688.098 224.8C696.632 220.133 703.232 213.6 707.898 205.2C712.565 196.8 714.898 186.933 714.898 175.6V83H680.098V135.6H679.298C676.232 131.733 672.298 128.8 667.498 126.8C662.698 124.667 657.432 123.6 651.698 123.6C642.232 123.6 633.765 125.8 626.298 130.2C618.965 134.467 613.165 140.533 608.898 148.4C604.632 156.267 602.498 165.4 602.498 175.8C602.498 186.733 604.765 196.4 609.298 204.8C613.832 213.2 620.298 219.8 628.698 224.6C637.098 229.267 647.098 231.6 658.698 231.6ZM658.698 201.4C652.432 201.4 647.365 199.133 643.498 194.6C639.765 190.067 637.898 184.4 637.898 177.6C637.898 170.933 639.765 165.4 643.498 161C647.365 156.6 652.432 154.4 658.698 154.4C664.832 154.4 669.832 156.6 673.698 161C677.565 165.4 679.498 170.933 679.498 177.6C679.498 184.4 677.565 190.067 673.698 194.6C669.832 199.133 664.832 201.4 658.698 201.4Z" fill="black"/>
</svg>
